<svg width="16" height="16" viewBox="0 0 16 16" fill="none" xmlns="http://www.w3.org/2000/svg">
<path d="M13.1417 2.28577H2.85603C1.59366 2.28577 0.570312 3.30912 0.570312 4.57148V11.4286C0.570312 12.691 1.59366 13.7143 2.85603 13.7143H13.1417C14.4041 13.7143 15.4275 12.691 15.4275 11.4286V4.57148C15.4275 3.30912 14.4041 2.28577 13.1417 2.28577Z" stroke="#7B7B7C" stroke-linecap="round" stroke-linejoin="round"/>
<path d="M6.0666 10.6515V5.85153C6.06421 5.77049 6.08398 5.69034 6.12376 5.6197C6.16354 5.54906 6.22184 5.4906 6.29238 5.45063C6.36291 5.41066 6.44301 5.39069 6.52406 5.39286C6.6051 5.39503 6.68402 5.41927 6.75231 5.46296L10.8666 7.86296C10.9353 7.90329 10.9923 7.9609 11.032 8.03006C11.0716 8.09922 11.0924 8.17754 11.0924 8.25724C11.0924 8.33694 11.0716 8.41526 11.032 8.48443C10.9923 8.55359 10.9353 8.61119 10.8666 8.65153L6.75231 11.0515C6.68252 11.0918 6.60331 11.113 6.52271 11.1128C6.44212 11.1126 6.363 11.0911 6.29338 11.0505C6.22377 11.0099 6.16612 10.9516 6.1263 10.8815C6.08647 10.8115 6.06587 10.7321 6.0666 10.6515V10.6515Z" stroke="#7B7B7C" stroke-linecap="round" stroke-linejoin="round"/>
</svg>
